<?xml version="1.0" encoding="utf-8"?>
<!-- Generator: Adobe Illustrator 27.3.1, SVG Export Plug-In . SVG Version: 6.00 Build 0)  -->
<svg version="1.0" id="Capa_1" xmlns="http://www.w3.org/2000/svg" xmlns:xlink="http://www.w3.org/1999/xlink" x="0px" y="0px"
	 viewBox="0 0 249.2 165.2" style="enable-background:new 0 0 249.2 165.2;" xml:space="preserve">
<g>
	<path fill="white" d="M169,3.2l1.3-0.4l0-0.2l1-0.3l-0.4-1.4c-0.2-0.8-0.9-1.2-1.7-1.1l-1.4,0.4l-0.2,0.3c-0.2,0.2-0.3,0.3-0.5,0.4
		c-0.3,0.1-1,0.3-9.8,6.1c-2.2,1.2-4.1,2.6-5.7,4.2c-1.1,0.5-1.8,0.9-2.2,1.3c0,0-0.1,0-0.1,0l-0.6-0.1l-0.3,0.5
		c-0.4,0.5-1,0.9-1.8,1.1l-1,0.3l0.2,0.7c-0.1,0.1-0.3,0.3-0.6,0.6l-0.2,0l-0.9,0.2l-0.2,0.2c-0.2,0.1-0.5,0.5-0.7,0.9
		c-2.9,1.6-4.1,2.5-4.4,3.2c-3.4,2.2-4.7,3.3-5.1,3.9c-1.9,1-3.1,1.9-3.8,2.7c-1.5,0.9-3.7,2.5-6.5,5c-1,0.6-1.7,1.1-2,1.6
		c-0.8,0.4-1.7,1-2.8,2.1c-3.9,2.6-6.4,4.7-7.8,6.5c-5.7,4-6.7,5.2-7.1,5.6c-4.4,3.6-7,6-8,7.1c-4.7,4.1-6.4,5.6-7,6.4
		c-2.2,1.6-3,2.5-3.3,3.2c-1.7,1.4-3.1,2.6-4.1,3.6l0,0l0,0c-1.1,1.1-1.8,1.9-2.3,2.6c-3.2,3.1-4.4,4.4-4.9,5l-3.3,3.3l-0.1,0.1
		c-2.8,3.4-5.1,6-7,7.7c-2,2.1-6.5,7.7-13.5,16.5c-1.5,1.6-2.9,3.6-4.2,5.9c-1.2,0.8-1.5,1.6-1.5,2.3c-2.4,2.6-3.1,3.7-3.2,4.3
		c-4.6,6.3-5.7,8.1-5.9,8.9l-7.1,12.1c-0.2,0.3-0.3,0.6-0.4,0.9l2-12c0.7-4,1.2-7.5,1.5-10.3c0.8-3.6,1.6-8.1,2.4-13.4
		c1.5-12.2,2.5-20.7,3-25.4c0.7-11.1,0.6-18.5-0.5-22.6l0-0.1c-1.1-2.8-2-4.6-2.8-5.5l-0.1-0.1c-2.5-2.3-5.5-3-9.1-2l-1.9,0.5
		c-4.3,1.4-9.2,6-15,14.1l-0.1,0.1c-4.5,7.9-6.9,13.1-7.2,15.8L0,77l0.2,0.2c0,0.1,0,0.2,0,0.3l0.2,0.6c0.2,0.9,1.1,1.1,3,1.3l0.4,0
		l0.3-0.2c0.7-0.5,1.7-2,4.4-9.6C14.9,58,21,51.3,26.7,49.6c1.7,0.3,2.8,1.6,3.4,3.8l0.1,0.4c1.4,5.5,1.7,13.6,0.8,24.3
		c-0.6,6.8-0.9,9-1.1,9.7l-0.2,0.1l0,0.6c-0.2,4.1-0.6,7.4-1.1,9.6l0,0.1c-0.3,3-0.5,3.9-0.6,4.1l-0.1,0.1l0,0.3
		c-0.3,3-0.6,5.1-1,6.2l-0.1,0.2c-0.4,3.7-0.8,6.2-1.3,7.6l-0.3,0.7l0.4,0.4c-0.2,0.9-0.6,2.6-1.2,6.5l-0.1,0.5l0.3,0.3
		c-1.2,4.9-1.3,6.3-1.3,6.9c-0.1,0.4-0.4,2.1-1.7,8.4c-1.3,8.3-1.2,8.9-1.1,9.2l0.3,1l0.3,0.2c1.6,1,3.2,1.3,5,0.8l0.3-0.1l0.2-0.2
		c0.7-0.7,1.4-1.6,1.8-2.5c2.7-6.1,5.6-11.7,8.4-16.4l0.1-0.1c0.8-1.9,3.7-6.7,8.8-14.2c1.8-2.9,2.4-3.8,2.7-4.1l0.1,0l5.6-7.5
		l-0.1-0.4c0.9-0.7,2.3-2.3,4.7-5.5l0.1-0.1c1.2-2.1,1.9-2.4,2-2.5l0.4-0.1l0.2-0.4c0.8-1.5,2.1-3.1,3.9-4.7l0.3-0.3l0-0.4
		c0-0.8,0.3-0.9,0.5-1l1-0.3L67,90.4l0.2-0.2c1.5-1.6,1.9-2.2,1.7-2.9l-0.1-0.5c0-0.1,0.1-0.2,0.1-0.2l0.5,0.2l1.2-0.3l0.2-0.1
		c1.4-1.1,2.2-2.2,2.4-3.2c0.6-0.2,1.3-0.7,2.1-1.6l0.9-0.2l-0.4-0.3l0,0l0-0.2c0.7-0.2,1.1-0.8,1.1-1.5c0.7-0.3,1.3-0.7,1.6-1.3
		l0.2-0.3c0.9-0.4,1.5-0.9,1.8-1.5l3.9-4.3c0.3-0.1,0.5-0.2,0.6-0.3l0.3-0.1l0-0.1c0.2-0.2,0.3-0.4,0.3-0.6l0.9-0.2l-0.2-0.9l0.2,0
		c0.3-0.1,0.6-0.3,0.7-0.5c1.5-0.9,2.3-1.6,2.6-2.3l0-0.1l0.8-0.2l-0.8-0.9c0.8-0.5,1.4-1,1.8-1.3l0.2,0c1.4-0.4,2.1-1,2.5-1.7l0,0
		l0,0c0.1-0.2,0.2-0.4,0.3-0.6l1.4,0.2l-0.2-0.7l0.4-0.1l-0.1-0.4l0.4-0.1l0.2-0.4c0.4-0.7,0.6-1.1,0.8-1.4l0.6-0.4
		c1.5-1,2.3-1.7,2.6-2.4l2-0.5l-0.4-1.3c0.2-0.2,0.3-0.4,0.4-0.6l0.2,0l0.6-0.6l0.8,0.2l0.4-0.4c1.2-1.2,1.6-1.4,1.6-1.4l1-0.3
		l-0.1-0.5l1,0.2l-0.2-0.8l0.9-0.2l-0.5-0.5c0.4-0.3,0.9-0.7,1.7-1.5l0.1-0.1l0.7-0.2l1.9-1.6c-0.8,3.9-1.6,7-2.3,9.2l-0.1,0.3
		l0,0.1c-0.1,0.6-0.7,2.6-2.6,9.5l-2.4,8.1c-1.6,5-3.3,10.5-5,16.5c-4.6,13.1-7.6,24.1-9,32.8l-0.1,0.5l1.2,1.3l1.9-1.1l0.1-0.4
		c0.1-0.5,0.4-1,0.7-1.1l0.4-0.1l0.2-0.3c0.8-1.2,1.7-3.4,2.7-7c2-7.7,4.3-15.2,6.9-22.2c2.2-7.6,3.6-12.1,4.2-13.3l3-9.5l5.2-18.7
		c2.2-7.8,2.6-10.2,2.6-11.2l0.6-0.1l1.5-1.2l-0.2-0.6c0-0.2,0.3-0.3,0.5-0.4l0.6-0.3l0-0.5c0.2-0.2,0.7-0.8,2.9-2.2l2.4-0.6
		l-0.1-0.4l1.1-0.2l-0.2-0.9c0,0,0.1-0.1,0.4-0.4c1.3-0.8,2.3-1.8,3.2-3l1.5-0.1l0.3-0.2c0.8-0.7,1.4-1.3,1.8-1.9
		c0.2,0.1,0.5,0.1,0.7,0l0.2-0.1c1-0.3,1.3-1.1,1.1-1.7c1-0.5,1.5-0.8,1.8-1.2l7.6-5.6c1.6-0.7,2.6-1.4,3.2-2.1l0.2,0
		c0.8-0.2,1.2-0.9,1.1-1.6l0.9-0.2c0.3-0.1,0.6-0.2,0.8-0.4l0.4,0.1l0.4-0.3c1.1-1,2.1-1.6,3-1.8l0.5-0.1l0.2-0.5
		c0.1-0.3,0.9-1.4,4.7-3.3l0.7-0.3l0.2-0.1c0.6-0.2,1.2-0.5,1.8-1.1l0.3-0.3l0-0.4c0-0.3,0.8-0.6,1.1-0.7l1.7-0.4L169,3.2z"/>
	<path fill="white" d="M90.1,101.4l-0.1-0.3l0.3-0.5c0.3-0.4,0.5-0.5,0.5-0.5l1-0.3l-0.2-0.8l1.1-0.3l-0.3-1c0-0.2-0.1-0.4,0-0.5
		c1.5-2.1,2.5-3.7,3.1-4.9l0.1-0.3l-0.3-1l-3.1-1.8l-0.7,0.2c-0.6,0.1-1.5,0.4-6.4,7.1l-2.8-0.3c-4.1-0.5-7-0.4-9,0.1l-0.6,0.1
		c-1.3,0.3-3.8,1.6-10.1,8.8c-8.9,11.6-12.6,19.4-11.5,23.9c0.5,1.9,2.2,4.2,7.1,3.8l1-0.3c1.4-0.4,4-1.8,10.3-9.7l1.2,0.3l-0.3-1.3
		c0.7-0.7,2.1-2.6,5.2-7.7c0,0,0,0,0.1,0l0.4,0.1l0.3-0.2c1.1-0.5,1.4-0.7,1.4-0.7l0.1,0c-0.7,1.9-1.2,3.2-1.4,4
		c-2.1,4.6-2.8,7.8-2.2,10l0.2,0.8c0.3,1,1.1,2.3,3.4,2.7l0.2,0l0.5-0.1c1-0.3,1.2-1.6,1.3-2.2l0-0.2l0-0.2c-0.1-0.5-0.5-1-1.3-1.5
		l-0.4-1.5c0.1-0.4,0.3-0.7,0.3-0.9l0.3-0.1l0.1-0.7c0.2-1.9,0.6-3.3,1.2-4.3l0.2-0.4l-0.1-0.4c0-0.2-0.1-0.4-0.2-0.5l0.9-1.4l0-0.2
		c0.8-2.6,1.3-3.3,1.5-3.4c0.1,0,0.3,0.1,0.6,0.2l2.6,1.2l-1.8-3.8c-0.1-0.4,0-0.7,0.5-1.1l0.5-0.4l-0.2-0.6c0,0,0-0.1,0-0.1
		c1.3-2,1.8-3,2-3.5c0.5-0.5,0.9-0.9,1.1-1.3l0.2,0.8l1.2-1.1C89.5,103.2,90.4,102.4,90.1,101.4z M82.6,98.1l2-0.9
		c-0.5,0.7-1,1.5-1.6,2.3l-6.2,7.5l-11,12.8c-5,5.1-7.8,7.1-9.3,7.8c-0.1-1.1,0.5-4.2,4.9-12.3c1.4-1.6,2.8-3.4,4.1-5.5
		C69.5,105.3,75.3,101.4,82.6,98.1z"/>
	<path fill="white" d="M105.7,119l0.4,1.4l1.2-0.3c0.9-0.2,1.4-0.6,1.6-1l0.5,0.1l1.3-1.1l-0.1-0.6c0.4-0.5,0.6-1.2,0.7-1.7l0-0.2
		c0.6-0.8,1.1-1.8,1.3-3l0.1-0.5l-0.1-0.2c0.5-0.7,1.4-2.5,3.5-7.8c4.9-11.3,7.6-18.7,8.3-22.6l0-0.2l-0.1-0.2
		c-0.2-0.6-0.8-1.3-3.2-2.4l-0.3-0.1l-1.6,0.4l-0.2,0.6c-1.7,6.4-2.2,7.6-2.3,7.9l-0.2,0.4l0.1,0.3c-0.1,0.5-0.8,2.9-5.2,13.4
		C105.2,116.9,105.6,118.3,105.7,119z"/>
	<path fill="white" d="M122.9,68.9l0.3,0.2l2.1-0.5l0.1-0.1c3.4-2.2,3.6-4.7,3.1-6.4c-0.4-1.4-1.4-1.6-2.1-1.4l-0.7,0.2l-1.8,0.4l-1.8-0.2
		l-0.4,0.1c-0.9,0.2-2,1-2.5,3.2l0,0.2l0.4,1.4C119.9,67,121,68,122.9,68.9z"/>
	<path fill="white" d="M165.5,95.8l-0.1-0.3c-3.1-4.8-7.8-6.3-14.2-4.6l-1.8,0.5c-1.7,0.5-3.5,1-5.3,1.6l3.4-2.7c3.8-2.6,5.2-3.8,5.9-4.5
		c0,0,0,0,0.1,0l0.2,0l0.2-0.1c0.4-0.1,0.7-0.3,0.8-0.6c4.4-3,6.1-5.2,5.6-7.1c-0.2-0.7-0.8-1.3-2-1.9c-0.8-1.3-3.3-1.5-11.6,0.6
		c-0.4,0.1-0.8,0.3-1.4,0.5c-0.5-0.1-1.3,0.2-2.2,0.6l-0.7-0.1l-0.4,0.4c-0.1,0.1-0.2,0.2-0.4,0.2l-3.6,1c-2.3,0.6-5.5,1.2-9.5,1.8
		l-0.1,0c-0.8,0.2-1.2,0.9-1.1,1.7l0.2,0.8l0.2,0.2c1.7,1.9,5.6,2,12.3,0.2l3.1-0.8l0,0.1l1-0.4c2-0.7,3.4-1.1,4.4-1.4l1.3-0.4
		c0.5-0.1,1.2-0.3,2-0.5c-0.8,0.8-3.3,2.7-10.3,7.9c-5.8,4.3-10.1,7.7-12.8,10.2l-0.4,0.4l0.5,1.9l0.1,0.2c1.6,1.9,3,1.9,4.1,1.7
		c0,0,0,0,0,0l18.3-6.8c5.6-1.5,8.9-1.4,9.4,0.3c0.4,1.7-0.1,4.3-1.6,7.7c-2.2,4.9-3,6-3.3,6.3l-0.2,0.1l-0.2,0.3
		c-1.6,3-2.3,4-2.5,4.4l-7.5,10.5c-1.2,0.9-2.3,2-3.3,3.3c-3.1,3.7-4,4.6-4.3,4.8l-0.1,0l-0.2,0.2c-1.8,1.8-2.4,2.3-2.5,2.4
		l-0.2,0.1l-0.2,0.3c-0.3,0.4-2,2.1-7.9,7.5c-10.2,8.3-12.4,9.5-12.9,9.6l-1,0.3l0.2,0.6c-0.6,0.5-3.1,2-13,5.9c-0.3,0-0.6,0-1,0.1
		L98,161l-0.1,0.1c-0.1,0-0.3,0-0.4,0c-1.7,0-2.2-0.7-2.4-1.5l-0.1-0.5l0.1-2.3l-0.3-1.5l-0.6,0.2c0.3-1.6,0.8-3.1,1.6-4.7l0.1-0.1
		l1-0.3l-0.3-1.2c0.7-0.4,0.9-1.1,0.8-1.7l-0.2-0.7c0.6-0.8,1.4-2,2.5-4l1.2-2.1l-3.3,0.9l-0.2,0.2c-1.6,1.5-2.9,3.5-3.8,5.7
		c-1,1.2-1.8,2.8-2.5,4.6c-1.2,3.1-1.6,5.6-1.1,7.6l0.3,1.1l0.1,0.2c2.8,3.7,6.6,4.9,11.3,3.7c0.1,0,0.4-0.1,1.9-0.7l0.8-0.3
		l-0.1-0.4l2.5-0.3l1-0.5l1.5,0l0.1-0.7l0.1,0c1-0.3,2.7-1,5.4-2.4c6.9-4.4,11.7-7.9,14.4-10.6c2.2-1.6,5.2-4.3,9-7.9l0.7-0.7
		l-0.3-0.3c1.6-1.2,2.5-2.1,2.8-2.9l0.3-0.1c0.3-0.1,0.7-0.2,3.4-3.1l0.2,0.6l1.2-2.5c0.1-0.3,0.3-0.4,0.3-0.4l0.3-0.1l0.2-0.2
		c3-3.3,4.8-5.7,5.7-7.1c3.2-3.9,5.5-7.2,6.8-9.8c5-7.6,6.9-13.2,5.9-17.2L165.5,95.8z"/>
	<path fill="white" d="M208.4,69.1l-0.2-0.8l1.1-0.3l-0.3-1c0-0.2-0.1-0.4,0-0.5c1.5-2.1,2.5-3.7,3.1-4.9l0.1-0.3l-0.3-1l-3.1-1.8l-0.7,0.2
		c-0.6,0.1-1.5,0.4-6.4,7.1l-2.8-0.3c-4.1-0.5-7-0.4-9,0.1l-0.6,0.1c-1.3,0.3-3.8,1.6-10.1,8.8c-8.9,11.6-12.6,19.4-11.5,23.9
		c0.5,1.9,2.2,4.2,7.1,3.8l1-0.3c1.4-0.4,4-1.8,10.3-9.7l1.2,0.3l-0.3-1.3c0.7-0.7,2.1-2.6,5.2-7.7c0,0,0,0,0.1,0l0.4,0.1l0.3-0.2
		c1.1-0.5,1.4-0.7,1.4-0.7l0.1,0c-0.7,1.9-1.2,3.2-1.4,4c-2.1,4.6-2.8,7.8-2.2,10l0.2,0.8c0.3,1,1.1,2.3,3.4,2.7l0.2,0l0.5-0.1
		c1-0.3,1.2-1.6,1.3-2.2l0-0.2l0-0.2c-0.1-0.5-0.5-1-1.3-1.5l-0.4-1.5c0.1-0.4,0.3-0.7,0.3-0.9l0.3-0.1l0.1-0.7
		c0.2-1.9,0.6-3.3,1.2-4.3l0.2-0.4l-0.1-0.4c0-0.2-0.1-0.4-0.2-0.5l0.9-1.4l0-0.2c0.8-2.6,1.3-3.3,1.5-3.4c0.1,0,0.3,0.1,0.6,0.2
		l2.6,1.2l-1.8-3.8c-0.1-0.4,0-0.7,0.5-1.1l0.5-0.4l-0.2-0.6c0,0,0-0.1,0-0.1c1.3-2,1.8-3,2.1-3.5c0.5-0.5,0.9-0.9,1.1-1.3l0.2,0.8
		l1.2-1.1c0.3-0.3,1.2-1.1,0.9-2.1l-0.1-0.3l0.3-0.5c0.3-0.4,0.5-0.5,0.5-0.5L208.4,69.1z M199.2,67.2l2-0.9c-0.5,0.7-1,1.5-1.6,2.3
		l-6.2,7.5l-11,12.8c-5,5.1-7.8,7.1-9.3,7.8c-0.1-1.1,0.5-4.2,4.9-12.3c1.4-1.6,2.8-3.4,4.1-5.5C186.1,74.5,191.9,70.5,199.2,67.2z"
		/>
	<path fill="white" d="M234,71.5l-0.1-0.5l-0.2-0.2c-2.3-2-4.1-2.9-5.4-2.6c-7.7,0.6-10.8,0.5-12,0.4c0-0.1,0.1-0.2,0.1-0.3
		c2.8-4.2,6.8-7.6,11.9-10.3c0.5-0.1,1.2-0.2,2-0.2l0.3,0l0.3-0.2c0.7-0.6,1-1.2,0.8-1.8l-0.1-0.4l-0.2-0.2c-1.6-1.6-3-2.2-4.3-1.9
		c-3.2,0.9-7.4,3.9-12.9,9.4c-2.3,2.7-3.2,4.6-2.8,6c0.8,3.1,3.9,4.7,9.2,4.6c3.6-0.4,6.3-0.5,8-0.5c-0.3,0.5-0.8,1.3-2,2.3
		l-0.2,0.2l0,0.2c-0.2,0.3-1.1,1.3-4.9,4.9c-8.1,6.6-9.8,8.3-10.3,8.9l-0.9,0.2l-0.2,0.2c-0.4,0.4-0.7,0.8-0.8,1.3
		c-0.2,0-0.3,0-0.5,0l-1.3,0.3l0.4,1.3l1,1.3l1.7-1.3l0-0.1l0,0c0.4-0.1,0.7-0.2,0.9-0.4l0.2,0.6l2.5-1.5l2.1-1.5l1-0.1l0.2-0.2
		c0.1-0.1,0.2-0.1,0.2-0.1l1-0.3l-0.2-0.6l0.4-0.1c0.5-0.1,1-0.5,1.5-1l0.3-0.3c0.1,0,0.1,0,0.2,0l0.2-0.1l0.2-0.1
		c0.3-0.2,0.8-0.7,1.3-1.3l0.5-0.4c0.2-0.2,0.4-0.3,0.6-0.5l0.1,0l0,0c1.3-1.1,1.9-1.7,2.1-2.1C232.1,77.7,234.7,74.2,234,71.5z
		 M208.3,92.7l0.4-0.1l0.1,0.6C208.7,93.2,208.4,93,208.3,92.7z"/>
</g>
<g>
	<path fill="white" d="M183.7,111.4v14.3h-4v-5.5h-4.3v5.5h-4v-14.3h4v5.2h4.3v-5.2H183.7z"/>
	<path fill="white" d="M185.7,118.6c0-4.4,3.3-7.5,7.9-7.5c4.6,0,7.9,3.1,7.9,7.5s-3.3,7.5-7.9,7.5C189,126.1,185.7,122.9,185.7,118.6z
		 M197.4,118.6c0-2.2-1.6-3.8-3.8-3.8s-3.8,1.6-3.8,3.8c0,2.2,1.6,3.8,3.8,3.8S197.4,120.8,197.4,118.6z"/>
	<path fill="white" d="M202.8,121.1h4.1c0,1,0.8,1.5,1.7,1.5c0.8,0,1.6-0.4,1.6-1.2c0-0.9-1.1-1.2-2.5-1.5c-2.1-0.5-4.7-1.1-4.7-4.4
		c0-2.8,2.1-4.4,5.4-4.4c3.4,0,5.4,1.8,5.4,4.7h-4c0-0.9-0.7-1.3-1.5-1.3c-0.7,0-1.4,0.3-1.4,1c0,0.8,1.1,1.1,2.4,1.4
		c2.1,0.5,4.9,1.2,4.9,4.5c0,3.1-2.4,4.7-5.7,4.7C205.1,126.1,202.8,124.2,202.8,121.1z"/>
	<path fill="white" d="M226.8,115h-3.9v10.8h-4V115h-3.9v-3.5h11.7V115z"/>
	<path fill="white" d="M237.9,122.3v3.4h-9.3v-14.3h9.2v3.4h-5.2v2.1h4.7v3.2h-4.7v2.1H237.9z"/>
	<path fill="white" d="M249.2,122.1v3.6h-9.1v-14.3h4v10.7H249.2z"/>
</g>
</svg>
