<svg xmlns="http://www.w3.org/2000/svg" viewBox="0 0 141.6 118.2" fill="#fff"><path id="path-logo" d="M102.4 3l-.2-.9.8-.2v-.2l.6-.2-.2-.8c-.1-.5-.5-.7-1-.7l-.8.2-.1.2c-.1.1-.2.2-.3.2-.2.1-.6.2-5.9 3.7-1.3.7-2.5 1.6-3.4 2.5-.7.3-1.1.5-1.3.8h-.1l-.4-.1-.2.3c-.2.3-.6.5-1.1.7l-.8.3.1.4-.4.4h-.1l-.5.1-.1.1c-.1.1-.3.3-.4.5-1.8 1-2.5 1.5-2.7 1.9-2.1 1.3-2.8 2-3.1 2.4-1.1.6-1.9 1.1-2.3 1.6-.9.5-2.2 1.5-3.9 3-.6.4-1 .7-1.2 1-.5.2-1 .6-1.7 1.3-2.4 1.6-3.9 2.8-4.7 3.9-3.4 2.4-4.1 3.1-4.3 3.4l-4.8 4.3-4.3 3.9c-1.3 1-1.8 1.5-2 1.9l-2.5 2.2c-.7.7-1.1 1.1-1.4 1.6l-3 3-2 2-.1.1-4.2 4.7c-1.2 1.3-3.9 4.7-8.2 10-.9 1-1.8 2.2-2.5 3.6-.7.5-.9 1-.9 1.4-1.3 1.4-1.8 2.1-1.8 2.5-2.8 3.8-3.4 4.9-3.6 5.4l-4.3 7.3c-.1.2-.2.4-.2.5l1.2-7.3c.4-2.4.7-4.5.9-6.2.5-2.2 1-4.9 1.5-8.1l1.8-15.4c.4-6.7.4-11.2-.3-13.7v-.1c-.7-1.7-1.2-2.8-1.7-3.3l-.1-.1c-1.5-1.4-3.3-1.8-5.5-1.2l-1.1.3c-2.6.8-5.6 3.6-9.1 8.5l-.1.1C1.7 41.5.2 44.6 0 46.3v.4l.1.1v.2l.1.4c.1.5.7.7 1.8.8h.2l.3-.2c.4-.3 1-1.2 2.7-5.8 3.9-7 7.6-11.1 11-12.1 1 .2 1.7 1 2.1 2.3l.1.2c.8 3.3 1 8.2.5 14.7-.4 4.1-.5 5.4-.7 5.9l-.2.1v.4c-.1 2.5-.4 4.5-.7 5.8v.1c-.2 1.8-.3 2.4-.4 2.5l-.1.1v.2c-.2 1.8-.4 3.1-.6 3.7l-.1.1c-.2 2.2-.5 3.7-.8 4.6l-.2.4.2.2c-.1.5-.4 1.6-.7 3.9l-.1.3.2.2c-.7 3-.8 3.8-.8 4.2-.1.2-.2 1.3-1 5.1-.8 5-.7 5.4-.7 5.6l.2.6.2.1c1 .6 1.9.8 3 .5l.2-.1.1-.1c.4-.4.8-1 1.1-1.5 1.6-3.7 3.4-7.1 5.1-9.9l.1-.1c.5-1.1 2.2-4.1 5.3-8.6 1.1-1.8 1.5-2.3 1.6-2.5h.1l3.4-4.5-.1-.2c.5-.4 1.4-1.4 2.8-3.3l.1-.1c.7-1.3 1.1-1.5 1.2-1.5l.2-.1.1-.2c.5-.9 1.3-1.9 2.4-2.8l.2-.2V56c0-.5.2-.5.3-.6l.6-.2-.1-.2.1-.1c.9-1 1.1-1.3 1-1.8l-.1-.3c0-.1.1-.1.1-.1l.3.1.7-.2.1-.1c.8-.7 1.3-1.3 1.5-1.9.4-.1.8-.4 1.3-1l.5-.1-.2-.2v-.1c.4-.1.7-.5.7-.9.4-.2.8-.4 1-.8l.1-.2c.5-.2.9-.5 1.1-.9l2.4-2.6c.2-.1.3-.1.4-.2l.2-.1v-.1c.1-.1.2-.2.2-.4l.5-.1-.1-.5h.1c.2-.1.4-.2.4-.3.9-.5 1.4-1 1.6-1.4v-.1l.5-.1-.5-.5c.5-.3.8-.6 1.1-.8h.1c.8-.2 1.3-.6 1.5-1 .1-.1.1-.2.2-.4l.8.1-.1-.4.2-.1-.1-.2.2-.1.1-.2c.2-.4.4-.7.5-.8l.4-.2c.9-.6 1.4-1 1.6-1.5l1.2-.3-.2-.8c.1-.1.2-.2.2-.4h.1l.4-.4.5.1.2-.2c.7-.7 1-.8 1-.8l.6-.2.1-.4.6.1-.1-.5.5-.1-.3-.3c.2-.2.5-.4 1-.9l.1-.1.4-.1 1.1-1c-.5 2.4-1 4.2-1.4 5.6l-.1.2v.1c-.1.4-.4 1.6-1.6 5.7l-1.5 4.9c-1 3-2 6.3-3 10-2.8 7.9-4.6 14.6-5.4 19.8l-.1.3.7.8 1.1-.7.1-.2c.1-.3.2-.6.4-.7l.2-.1.1-.2c.5-.7 1-2.1 1.6-4.2 1.2-4.7 2.6-9.2 4.2-13.4 1.3-4.6 2.2-7.3 2.5-8l1.8-5.7L71.2 31c1.3-4.7 1.6-6.2 1.6-6.8l.4-.1.9-.7-.1-.4c0-.1.2-.2.3-.2l.4-.2v-.3c.1-.1.4-.5 1.8-1.3l1.5-.4-.1-.2.7-.1-.1-.5.2-.2c.8-.5 1.4-1.1 1.9-1.8l.9-.1.2-.1c.5-.4.8-.8 1.1-1.1.1.1.3.1.4 0l.1-.1c.6-.2.8-.7.7-1 .6-.3.9-.5 1.1-.7l4.6-3.4c1-.4 1.6-.8 1.9-1.3h.1c.5-.1.7-.5.7-1l.5-.1c.2-.1.4-.1.5-.2l.2.1.2-.2c.7-.6 1.3-1 1.8-1.1l.3-.1.1-.4c.1-.2.5-.8 2.8-2l.4-.2.1-.1c.4-.1.7-.3 1.1-.7l.2-.2v-.2c0-.2.5-.4.7-.4l1.1-.2h0zM54.5 61.4l-.1-.2.2-.3.3-.3.6-.2-.1-.4.7-.2-.2-.6c0-.1-.1-.2 0-.3l1.9-3 .1-.2-.2-.6-1.9-1.1-.4.1c-.4.1-.9.2-3.9 4.3l-1.7-.2c-2.5-.3-4.2-.2-5.4.1l-.4.1c-.8.2-2.3 1-6.1 5.3-5.4 7-7.6 11.7-7 14.5.3 1.1 1.3 2.5 4.3 2.3l.6-.2c.8-.2 2.4-1.1 6.2-5.9l.7.2-.2-.8c.4-.4 1.3-1.6 3.1-4.7h.1l.2.1.2-.1c.7-.3.8-.4.8-.4h.1c-.4 1.1-.7 1.9-.8 2.4-1.3 2.8-1.7 4.7-1.3 6l.1.5c.2.6.7 1.4 2.1 1.6h.1l.3-.1c.6-.2.7-1 .8-1.3v-.1-.1c-.1-.3-.3-.6-.8-.9l-.2-.9c.1-.2.2-.4.2-.5l.2-.1.1-.4c.1-1.1.4-2 .7-2.6l.1-.2-.1-.2c0-.1-.1-.2-.1-.3l.5-.8v-.1c.5-1.6.8-2 .9-2.1.1 0 .2.1.4.1l1.6.7-1.1-2.3c-.1-.2 0-.4.3-.7l.3-.2-.1-.4v-.1c.8-1.2 1.1-1.8 1.2-2.1.3-.3.5-.5.7-.8l.1.5.7-.7c.2 0 .8-.4.6-1.1h0zm-4.3-1.1l-3.7 4.5-6.7 7.7c-3 3.1-4.7 4.3-5.6 4.7-.1-.7.3-2.5 3-7.4.8-1 1.7-2.1 2.5-3.3 2.4-2.7 5.9-5.1 10.3-7.1l1.2-.5c-.3.4-.6.9-1 1.4zm13.7 11.8l.2.8.7-.2c.5-.1.8-.4 1-.6l.3.1.8-.7-.1-.4c.2-.3.4-.7.4-1V70c.4-.5.7-1.1.8-1.8l.1-.3-.1-.1c.3-.4.8-1.5 2.1-4.7 3-6.8 4.6-11.3 5-13.7v-.1l-.1-.1c-.1-.4-.5-.8-1.9-1.5l-.2-.1-1 .2.1.5c-1 3.9-1.3 4.6-1.4 4.8l-.1.2.1.2c-.1.3-.5 1.8-3.1 8.1-3.9 9.2-3.6 10.1-3.6 10.5zm10.4-30.3l.2.1 1.3-.3.1-.1c2.1-1.3 2.2-2.8 1.9-3.9-.2-.8-.8-1-1.3-.8l-.5.2-1.1.2-1.1-.1-.2.1c-.5.1-1.2.6-1.5 1.9v.1l.2.8c.2.6.9 1.3 2 1.8z"/><path id="path-logo" d="M100.1 58.1l-.1-.2c-1.9-2.9-4.7-3.8-8.6-2.8l-1.1.3-3.2 1 2.1-1.6 3.6-2.7h.1.1l.1-.1c.2-.1.4-.2.5-.4 2.7-1.8 3.7-3.1 3.4-4.3-.1-.4-.5-.8-1.2-1.1-.5-.8-2-.9-7 .4-.2.1-.5.2-.8.3-.3-.1-.8.1-1.3.4l-.4-.1-.2.2c-.1.1-.1.1-.2.1l-2.2.6c-1.4.4-3.3.7-5.7 1.1h-.1c-.5.1-.7.5-.7 1l.1.5.1.1c1 1.1 3.4 1.2 7.4.1l1.9-.5v.1l.6-.2 2.7-.8.8-.2c.3-.1.7-.2 1.2-.3-.5.5-2 1.6-6.2 4.8L78.1 60l-.2.2.3 1.1.1.1c1 1.1 1.8 1.1 2.5 1l11.1-4.1c3.4-.9 5.4-.8 5.7.2.2 1-.1 2.6-1 4.7-1.3 3-1.8 3.6-2 3.8h-.5l-.1.1-1.5 2.7-4.5 6.3c-.7.5-1.4 1.2-2 2L83.4 81h-.1l-.1.1-1.5 1.5-.1.1-.1.2c-.2.2-1.2 1.3-4.8 4.5l-7.8 5.8-.6.2.1.4c-.4.2-1.9 1.2-7.9 3.5-.2 0-.4 0-.6.1l-.6.1-.1.1H59c-1 0-1.3-.4-1.5-.9l-.1-.3.1-1.4-.2-1-.3.2c.2-1 .5-1.9 1-2.8l.1-.1.6-.2-.2-.7c.4-.2.5-.7.5-1l-.1-.4c.4-.5.8-1.2 1.5-2.4l.7-1.3-2 .5-.1.1c-1 .9-1.8 2.1-2.3 3.4-.6.7-1.1 1.7-1.5 2.8-.7 1.9-1 3.4-.7 4.6l.2.7.1.1c1.7 2.2 4 3 6.8 2.2.1 0 .2-.1 1.1-.4l.5-.2-.1-.2 1.5-.2.6-.3h.9l.1-.4h.1c.6-.2 1.6-.6 3.3-1.5 4.2-2.7 7.1-4.8 8.7-6.4 1.3-1 3.1-2.6 5.4-4.8l.4-.4-.2-.2c1-.7 1.5-1.3 1.7-1.8l.2-.1c.2-.1.4-.1 2.1-1.9l.1.4.7-1.5c.1-.2.2-.2.2-.2l.2-.1.1-.1c1.8-2 2.9-3.4 3.4-4.3 1.9-2.4 3.3-4.4 4.1-5.9 3-4.6 4.2-8 3.6-10.4l-.2-.7h0zm21.4-10.4l.3-.2-.1-.4V47l1.3-2.1c.3-.3.5-.5.7-.8l.1.5.7-.7c.2-.2.7-.7.5-1.3l-.1-.2.2-.3.3-.3h.6l-.1-.5.7-.2-.2-.6c0-.1-.1-.2 0-.3l1.9-3 .1-.2-.2-.6-1.9-1.1-.4.1c-.4.1-.9.2-3.9 4.3l-1.7-.2c-2.5-.3-4.2-.2-5.4.1l-.4.1c-.8.2-2.3 1-6.1 5.3-5.4 7-7.6 11.7-7 14.5.3 1.1 1.3 2.5 4.3 2.3l.6-.2c.8-.2 2.4-1.1 6.2-5.9l.7.2-.2-.8c.4-.4 1.3-1.6 3.1-4.7h.1l.2.1.2-.1c.7-.3.8-.4.8-.4h.1c-.4 1.1-.7 1.9-.8 2.4-1.3 2.8-1.7 4.7-1.3 6l.1.5c.2.6.7 1.4 2.1 1.6h.1l.3-.1c.6-.2.7-1 .8-1.3V59v-.1c-.1-.3-.3-.6-.8-.9l-.2-.9c.1-.2.2-.4.2-.5l.2-.1.1-.4c.1-1.1.4-2 .7-2.6l.1-.2-.1-.2c0-.1-.1-.2-.1-.3l.5-.8v-.1c.5-1.6.8-2 .9-2.1.1 0 .2.1.4.1l1.6.7-1.1-2.3c-.1-.2 0-.3.3-.6zm-.8-6.1l-3.7 4.5-6.7 7.7c-3 3.1-4.7 4.3-5.6 4.7-.1-.7.3-2.5 3-7.4.8-1 1.7-2.1 2.5-3.3 2.4-2.7 5.9-5.1 10.3-7.1l1.2-.5c-.3.4-.6.9-1 1.4zm10.7 12.7l.1-.1.1-.1.6-.2-.1-.4.2-.1c.3-.1.6-.3.9-.6l.2-.2h.1l.1-.1.1-.1c.2-.1.5-.4.8-.8l.3-.2a1.38 1.38 0 0 1 .4-.3h.1c.8-.7 1.1-1 1.3-1.3 3.7-2.9 5.3-5 4.9-6.7l-.1-.3-.1-.1c-1.4-1.2-2.5-1.8-3.3-1.6-4.7.4-6.5.3-7.3.2 0-.1.1-.1.1-.2 1.7-2.5 4.1-4.6 7.2-6.2.3-.1.7-.1 1.2-.1h.2l.2-.1c.4-.4.6-.7.5-1.1l-.1-.2-.1-.1c-1-1-1.8-1.3-2.6-1.1-1.9.5-4.5 2.4-7.8 5.7-1.4 1.6-1.9 2.8-1.7 3.6.5 1.9 2.4 2.8 5.6 2.8l4.8-.3c-.2.3-.5.8-1.2 1.4l-.1.1v.1c-.1.2-.7.8-3 3l-6.2 5.4-.5.1-.1.1c-.2.2-.4.5-.5.8h-.3l-.8.2.2.8.6.8 1-.8v-.1c.2-.1.4-.1.5-.2l.1.4 1.5-.9 1.3-.9h.7 0zm-5.4 1.9l.2-.1.1.4c-.1 0-.3-.1-.3-.3z"/><path id="path-logo" d="M85.1 90.8h-6.7V85h-1.7v14h1.7v-6.6h6.7V99h1.6V85h-1.6zm11.4-6.1c-1.3 0-2.5.3-3.7 1-1.1.6-2 1.6-2.7 2.7-.6 1.1-1 2.4-1 3.7 0 2 .7 3.7 2.1 5.2 1.4 1.4 3.2 2.1 5.3 2.1 2 0 3.8-.7 5.2-2.1s2.1-3.2 2.1-5.2c0-2.1-.7-3.8-2.1-5.2-1.3-1.5-3.1-2.2-5.2-2.2zm5.8 7.3c0 1.1-.3 2.1-.7 2.9-.5.9-1.2 1.6-2.1 2.1s-1.9.8-2.9.8c-1.6 0-2.9-.6-4-1.7a5.66 5.66 0 0 1-1.7-4.1c0-1.1.3-2.1.8-2.9.5-.9 1.2-1.6 2.1-2.1s1.8-.8 2.8-.8 2 .3 2.9.8 1.6 1.2 2.1 2.1.7 1.9.7 2.9zm7.9-1c-1-.7-1.6-1.2-1.8-1.4-.3-.3-.5-.6-.7-.9-.1-.3-.2-.5-.2-.8 0-.5.2-.8.5-1.2.3-.3.8-.5 1.3-.5.4 0 .8.1 1.1.3s.8.7 1.3 1.3l.1.1 1.3-1-.1-.1c-.6-.9-1.3-1.5-1.8-1.8-.6-.3-1.2-.5-1.9-.5-.6 0-1.2.1-1.8.4-.5.3-1 .7-1.3 1.2s-.4 1.1-.4 1.7c0 .8.3 1.5.8 2.2.3.4 1 1 2.2 1.9 1.1.8 1.9 1.6 2.3 2.2.3.4.4.9.4 1.3s-.1.7-.3 1.1-.5.6-.9.8-.8.3-1.2.3c-1 0-1.9-.7-2.7-2.2l-.1-.1-1.4.8.1.1c.6 1.1 1.2 1.8 1.9 2.3s1.5.7 2.3.7c1.1 0 2.1-.4 2.9-1.1.8-.8 1.2-1.7 1.2-2.7 0-.7-.2-1.4-.7-2.1-.3-.6-1.2-1.4-2.4-2.3zm4.5-4.4h3.1V99h1.6V86.6h3.1V85h-7.8zm9.5 12.4h8.1v-1.6h-6.4v-5.1h6.4v-1.6h-6.4v-4.1h6.5V85h-8.2zm11.9-1.5V85h-1.6v14h6.9v-1.5zM17.3 109.2c-.3-.2-.7-.5-1.2-.7.4-.3.7-.6.9-.9.3-.4.4-.9.4-1.5s-.2-1.1-.4-1.6c-.3-.5-.7-.8-1.2-1.1-.5-.2-1.2-.3-2.2-.3h-2.4V115h3.3c1.2 0 2.1-.3 2.8-1s1.1-1.5 1.1-2.5c0-.5-.1-.9-.3-1.3-.2-.3-.5-.7-.8-1zm-1.6-2c-.2.3-.5.5-.8.7-.4.1-.9.2-1.7.2h-.5v-3.5h1.2c.8 0 1.3.1 1.7.4.3.3.5.7.5 1.1-.1.4-.2.8-.4 1.1zm-3.1 2.3h.5c1 0 1.6 0 2 .1.6.1 1 .4 1.3.7.3.4.5.8.5 1.3 0 .4-.1.7-.3 1.1-.2.3-.5.6-.9.7-.4.2-1 .2-1.8.2h-1.3v-4.1zm11.8-3.5c-1.4 0-2.5.5-3.4 1.5-.8.9-1.2 2-1.2 3.2s.4 2.3 1.3 3.2 2 1.4 3.3 1.4 2.5-.5 3.3-1.4c.9-.9 1.3-2 1.3-3.2s-.4-2.3-1.2-3.2c-.9-1-2-1.5-3.4-1.5zm0 1.3c.9 0 1.6.3 2.3 1a3.31 3.31 0 0 1 1 2.4c0 .6-.1 1.2-.4 1.7s-.7.9-1.2 1.2-1 .4-1.6.4-1.1-.1-1.6-.4-.9-.7-1.2-1.2-.4-1.1-.4-1.7c0-.9.3-1.7 1-2.4.5-.6 1.2-1 2.1-1zm12.6 3.1c0 1.1-.1 1.7-.2 2.1-.2.5-.4.8-.8 1.1s-.9.4-1.5.4-1.1-.1-1.5-.4a2.73 2.73 0 0 1-.9-1.2c-.1-.4-.2-1-.2-2v-4.1h-1.4v4.3c0 1.2.1 2.2.4 2.8s.7 1.1 1.3 1.5c.6.3 1.3.5 2.2.5s1.6-.2 2.2-.5c.6-.4 1-.8 1.3-1.5.3-.6.4-1.5.4-2.7v-4.3H37v4zm5.9-7.4h-1.4v3.2H40v1.2h1.5v7.6h1.4v-7.6h1.8v-1.2h-1.8zm3.7-.3c-.3 0-.5.1-.7.3a1.08 1.08 0 0 0-.3.7c0 .3.1.5.3.7s.4.3.7.3.5-.1.7-.3.3-.4.3-.7-.1-.5-.3-.7a1.08 1.08 0 0 0-.7-.3zm-.7 3.5h1.4v8.8h-1.4zm10.8 1.3c-.4-.5-.8-.8-1.3-1.1-.6-.3-1.2-.5-2-.5-1.2 0-2.3.5-3.2 1.4s-1.3 2-1.3 3.3.4 2.4 1.3 3.3 2 1.4 3.2 1.4c.7 0 1.4-.1 1.9-.4.5-.2 1-.6 1.4-1v4.4H58v-12h-1.3v1.2zm-.9.8c.6.6.9 1.4.9 2.4 0 .6-.1 1.2-.4 1.7s-.7.9-1.2 1.2a3.25 3.25 0 0 1-3.3 0c-.5-.3-.9-.7-1.2-1.2s-.4-1.1-.4-1.7a3.53 3.53 0 0 1 .4-1.7c.3-.5.7-.9 1.2-1.2s1-.4 1.6-.4c1-.1 1.8.2 2.4.9zm10.7 2.1c0 1.1-.1 1.7-.2 2.1-.2.5-.4.8-.8 1.1s-.9.4-1.5.4-1.1-.1-1.5-.4a2.73 2.73 0 0 1-.9-1.2c-.1-.4-.2-1-.2-2v-4.1H60v4.3c0 1.2.1 2.2.4 2.8s.7 1.1 1.3 1.5c.6.3 1.3.5 2.2.5s1.6-.2 2.2-.5c.6-.4 1-.8 1.3-1.5.3-.6.4-1.5.4-2.7v-4.3h-1.4v4zm12.3.3c0-1.2-.3-2.2-1-3-.9-1.1-2.1-1.7-3.6-1.7s-2.6.6-3.5 1.7c-.7.9-1 1.9-1 3 0 1.2.4 2.3 1.2 3.2s1.9 1.4 3.4 1.4c.6 0 1.2-.1 1.7-.3s1-.5 1.4-.9.8-.9 1.1-1.5l.1-.1-1.2-.6-.1.1c-.3.5-.6.9-.9 1.2l-1 .6c-.4.1-.8.2-1.2.2-.9 0-1.6-.3-2.2-.9s-.9-1.3-.9-2.2h7.7v-.2zm-7.6-1.1c.2-.7.5-1.2.9-1.5.6-.5 1.3-.8 2.1-.8.5 0 1 .1 1.4.3a4.44 4.44 0 0 1 1.1.8c.2.3.4.7.6 1.2h-6.1zm23.6 4.1l-1.1-1.1c.4-.3.9-.7 1.3-1.1l.1-.1-1-1-.1.1c-.3.3-.8.7-1.4 1.1l-1.1-1.1-1.7-1.7c.8-.6 1.3-1.2 1.5-1.6.3-.5.4-.9.4-1.3s-.1-.8-.3-1.1-.5-.6-1-.8c-.4-.2-.9-.3-1.4-.3-.8 0-1.5.2-2 .7-.5.4-.7.9-.7 1.5 0 .3.1.7.3 1.1s.6.9 1.2 1.6c-1.1.9-1.8 1.6-2.2 2.2s-.6 1.2-.6 1.8c0 .8.3 1.5.9 2s1.3.8 2.2.8c.7 0 1.3-.1 2-.4.6-.2 1.4-.7 2.3-1.5L94 115h2l-.2-.2-1-1.1zm-6.4.3c-.5 0-.9-.2-1.3-.5-.3-.3-.5-.7-.5-1.1 0-.3.1-.7.4-1.1s.9-1 1.8-1.7l1 1.1 1.7 1.8c-.7.6-1.4 1-2 1.3-.3.1-.7.2-1.1.2zm-.2-8.7c.2-.2.5-.3.9-.3a1.69 1.69 0 0 1 1 .3c.2.2.3.4.3.6s-.1.4-.3.7c-.3.4-.6.8-1.1 1.2-.4-.5-.8-.9-1-1.4-.1-.2-.1-.3-.1-.5 0-.3.1-.5.3-.6zm15.5 2c.5 0 1.1.3 1.6.8l.1.1.9-.9-.1-.1c-.8-.8-1.7-1.2-2.5-1.2-.7 0-1.3.2-1.8.7a2.19 2.19 0 0 0-.7 1.7c0 .5.1 1 .4 1.4s.8.8 1.6 1.2c.7.4 1.2.7 1.3.9.2.2.3.5.3.8s-.1.6-.4.9-.6.4-1 .4c-.6 0-1.2-.3-1.7-.9l-.1-.1-.9 1 .1.1a2.73 2.73 0 0 0 1.2.9c.5.2 1 .3 1.5.3.8 0 1.4-.3 1.9-.8s.8-1.1.8-1.9c0-.5-.2-1-.5-1.4s-.9-.8-1.7-1.3c-.7-.3-1.1-.6-1.3-.9a1.08 1.08 0 0 1-.3-.7c0-.3.1-.5.3-.7.4-.2.7-.3 1-.3zm10.5 3.1c0 1.1-.1 1.7-.2 2.1-.2.5-.4.8-.8 1.1s-.9.4-1.5.4-1.1-.1-1.5-.4a2.73 2.73 0 0 1-.9-1.2c-.1-.4-.2-1-.2-2v-4.1h-1.4v4.3c0 1.2.1 2.2.4 2.8s.7 1.1 1.3 1.5c.6.3 1.3.5 2.2.5s1.6-.2 2.2-.5c.6-.4 1-.8 1.3-1.5.3-.6.4-1.5.4-2.7v-4.3h-1.4v4zm4.1-7.7c-.3 0-.5.1-.7.3a1.08 1.08 0 0 0-.3.7c0 .3.1.5.3.7s.4.3.7.3.5-.1.7-.3.3-.4.3-.7-.1-.5-.3-.7-.4-.3-.7-.3zm-.7 3.5h1.4v8.8h-1.4zm5.7-3.2H122v3.2h-1.5v1.2h1.5v7.6h1.3v-7.6h1.8v-1.2h-1.8zm11.8 7.7c0-1.2-.3-2.2-1-3-.9-1.1-2.1-1.7-3.6-1.7s-2.6.6-3.5 1.7c-.7.9-1 1.9-1 3 0 1.2.4 2.3 1.2 3.2s1.9 1.4 3.4 1.4c.6 0 1.2-.1 1.7-.3s1-.5 1.4-.9.8-.9 1.1-1.5l.1-.1-1.1-.6-.1.1c-.3.5-.6.9-.9 1.2l-1 .6c-.4.1-.8.2-1.2.2-.9 0-1.6-.3-2.2-.9s-.9-1.3-.9-2.2h7.7l-.1-.2zm-7.5-1.1c.2-.7.5-1.2.9-1.5.6-.5 1.3-.8 2.1-.8.5 0 1 .1 1.4.3a4.44 4.44 0 0 1 1.1.8c.2.3.4.7.6 1.2h-6.1zm11.7.3c-.7-.3-1.1-.6-1.3-.9a1.08 1.08 0 0 1-.3-.7c0-.3.1-.5.3-.7s.5-.3.8-.3c.5 0 1.1.3 1.6.8l.1.1.9-.9-.1-.1c-.8-.8-1.7-1.2-2.5-1.2-.7 0-1.3.2-1.8.7a2.19 2.19 0 0 0-.7 1.7c0 .5.1 1 .4 1.4s.8.8 1.6 1.2c.7.4 1.2.7 1.3.9.2.2.3.5.3.8s-.1.6-.4.9-.6.4-1 .4c-.6 0-1.2-.3-1.7-.9l-.1-.1-.9 1 .1.1a2.73 2.73 0 0 0 1.2.9c.5.2 1 .3 1.5.3.8 0 1.4-.3 1.9-.8s.8-1.1.8-1.9c0-.5-.2-1-.5-1.4-.1-.4-.6-.8-1.5-1.3z"/></svg>